<svg width="31" height="28" viewBox="0 0 31 28" fill="none" xmlns="http://www.w3.org/2000/svg">
<path fill-rule="evenodd" clip-rule="evenodd" d="M11.9337 1.19723C11.9337 0.554493 11.3606 0.0334473 10.6537 0.0334473C9.94674 0.0334473 9.37366 0.554493 9.37366 1.19723V1.77913C9.37366 2.42186 9.94674 2.94291 10.6537 2.94291C11.3606 2.94291 11.9337 2.42186 11.9337 1.77913V1.19723ZM5.15878 2.70188C4.6589 2.2474 3.84845 2.2474 3.34857 2.70188C2.84871 3.15637 2.84871 3.89325 3.34857 4.34774L4.62858 5.51152C5.12846 5.966 5.93889 5.966 6.43877 5.51152C6.93864 5.05703 6.93864 4.32017 6.43877 3.86566L5.15878 2.70188ZM17.9588 4.34774C18.4586 3.89325 18.4586 3.15637 17.9588 2.70188C17.459 2.2474 16.6484 2.2474 16.1486 2.70188L14.8686 3.86566C14.3687 4.32017 14.3687 5.05703 14.8686 5.51152C15.3684 5.966 16.1789 5.966 16.6787 5.51152L17.9588 4.34774ZM1.69369 8.17995C0.986771 8.17995 0.413696 8.70101 0.413696 9.34375C0.413696 9.98648 0.986771 10.5075 1.69369 10.5075H2.33369C3.0406 10.5075 3.61369 9.98648 3.61369 9.34375C3.61369 8.70101 3.0406 8.17995 2.33369 8.17995H1.69369ZM19.6137 8.17995C18.9066 8.17995 18.3337 8.70101 18.3337 9.34375C18.3337 9.98648 18.9066 10.5075 19.6137 10.5075H20.2537C20.9606 10.5075 21.5337 9.98648 21.5337 9.34375C21.5337 8.70101 20.9606 8.17995 20.2537 8.17995H19.6137ZM6.43878 14.8217C6.93864 14.3673 6.93864 13.6304 6.43878 13.176C5.93891 12.7215 5.12847 12.7215 4.62858 13.176L3.34859 14.3398C2.84873 14.7942 2.84873 15.5312 3.34859 15.9856C3.84846 16.4401 4.65892 16.4401 5.15879 15.9856L6.43878 14.8217ZM11.9337 17.4903C11.9337 16.8474 11.3606 16.3265 10.6537 16.3265C9.94676 16.3265 9.37368 16.8474 9.37368 17.4903V18.0722C9.37368 18.7149 9.94676 19.2359 10.6537 19.2359C11.3606 19.2359 11.9337 18.7149 11.9337 18.0722V17.4903ZM12.4639 5.85236C11.4641 4.94339 9.84321 4.94339 8.84349 5.85236L6.81369 7.69788C5.81394 8.60686 5.81394 10.0806 6.81369 10.9896L9.74858 13.658L24.2035 26.8006C25.2032 27.7095 26.8241 27.7095 27.8239 26.8006L29.8537 24.9551C30.8533 24.0459 30.8533 22.5723 29.8537 21.6634L15.3988 8.52081L12.4639 5.85236ZM8.62386 9.34372L10.6537 7.49822L12.6835 9.34372L10.6537 11.1892L8.62386 9.34372ZM12.4639 12.8351L14.4937 10.9896L28.0435 23.3092L26.0137 25.1548L12.4639 12.8351Z" fill="#1A3D78"/>
</svg>
