<svg xmlns="http://www.w3.org/2000/svg" width="77" height="72" viewBox="0 0 77 72" fill="none">
  <g clip-path="url(#clip0_41_2325)">
    <path d="M2.61347 46.0533H73.4063V43.353C73.4063 42.6997 73.2701 42.0925 73.0285 41.549C72.7684 40.9708 72.3845 40.4562 71.9076 40.011C71.6165 39.7392 71.2883 39.4906 70.9353 39.2709C70.5761 39.0454 70.1921 38.8488 69.7896 38.6811C68.7058 38.4614 67.6282 38.2532 66.5568 38.0566C65.4792 37.86 64.3954 37.675 63.3054 37.5015C63.2559 37.4958 63.2187 37.49 63.1692 37.4784C62.618 37.3917 62.0916 37.3107 61.59 37.2356C61.0883 37.1604 60.5557 37.0852 59.9983 37.0043H59.986C56.1958 36.5533 52.418 36.2064 48.6465 35.9751C44.8687 35.7438 41.1095 35.6281 37.3751 35.6224C35.158 35.6224 32.9471 35.6571 30.7361 35.738C28.5376 35.819 26.3267 35.9346 24.1158 36.0965H24.1034C22.0349 36.2757 19.9726 36.5012 17.9041 36.7614C15.8418 37.0216 13.7734 37.3281 11.6925 37.6692L11.4633 37.7213C11.42 37.7328 11.3766 37.7386 11.3395 37.7386C11.3023 37.7444 11.2652 37.7444 11.228 37.7444C10.2557 37.9063 9.25862 38.0855 8.23057 38.2763C7.23349 38.4614 6.23641 38.658 5.24552 38.8603C4.9978 38.9875 4.76246 39.1321 4.53951 39.2824C4.31656 39.4386 4.0998 39.6062 3.90782 39.7855C3.49288 40.1729 3.16465 40.6181 2.9417 41.1154C2.73114 41.5837 2.61347 42.1041 2.61347 42.6708V46.0533ZM8.79414 7.10498H66.3834C67.1327 7.10498 67.8511 7.24375 68.5076 7.49816C69.1888 7.76414 69.8019 8.15154 70.316 8.62568C70.83 9.10559 71.2449 9.67802 71.5236 10.3141C71.7961 10.927 71.9447 11.5977 71.9447 12.2973V36.9812C72.2606 37.1546 72.5702 37.3454 72.8551 37.5536C73.1772 37.7849 73.4806 38.0277 73.7593 38.2879C74.4777 38.9586 75.0599 39.7392 75.45 40.6181C75.8216 41.4449 76.026 42.3643 76.026 43.3588V46.8801C76.0446 46.938 76.0631 46.9958 76.0755 47.0536V47.0652C76.0879 47.1403 76.0941 47.2097 76.0941 47.2791C76.0941 47.3543 76.0879 47.4294 76.0693 47.5046C76.0569 47.5624 76.0384 47.6202 76.0198 47.6781V63.6714C76.0198 64.0068 75.8711 64.3132 75.6358 64.5329C75.4005 64.7526 75.0722 64.8914 74.713 64.8914H72.0191C71.7156 64.8914 71.4369 64.7931 71.214 64.6312C70.991 64.4693 70.8238 64.238 70.7557 63.9721C70.2602 62.6422 69.7586 61.5898 69.2198 60.7688C68.6872 59.9593 68.1174 59.3811 67.461 58.9705C66.7983 58.56 66.0056 58.2998 65.0457 58.1437C64.0672 57.9818 62.9277 57.9298 61.5714 57.9355L12.1756 57.9934H12.1508C11.1785 57.976 10.3796 58.0916 9.71071 58.3345C9.04806 58.5773 8.50926 58.9416 8.06336 59.41C7.56172 59.9304 7.14059 60.5953 6.75663 61.3701C6.36646 62.1623 6.01346 63.0643 5.66045 64.053C5.57375 64.3074 5.40035 64.5098 5.18359 64.6543C4.97922 64.7931 4.7315 64.8741 4.47758 64.8856C4.459 64.8914 4.44042 64.8914 4.42184 64.8914H1.30674C0.947538 64.8914 0.619306 64.7526 0.38397 64.5329C0.148633 64.3132 0 64.0068 0 63.6714V42.6765C0 41.7687 0.185792 40.9361 0.520217 40.1844C0.879414 39.3865 1.40582 38.6753 2.06229 38.0624C2.24808 37.8889 2.45245 37.7155 2.66921 37.5536C2.855 37.4148 3.04079 37.2818 3.23897 37.1604V12.2453C3.23897 11.5456 3.3876 10.8807 3.6601 10.2794C3.94498 9.64911 4.35991 9.08246 4.87394 8.60833C5.38796 8.1342 6.00107 7.75836 6.67612 7.49816C7.33258 7.24375 8.04478 7.10498 8.79414 7.10498ZM66.3834 9.54503H8.79414C8.39159 9.54503 8.00762 9.6202 7.65462 9.75319C7.28923 9.89196 6.96719 10.0943 6.69469 10.343C6.42839 10.5858 6.21164 10.8865 6.063 11.2103C5.92676 11.5283 5.85244 11.8752 5.85244 12.2453V35.9866C6.03823 35.9288 6.22402 35.8826 6.41601 35.8363C6.71947 35.7611 7.02293 35.6975 7.32639 35.6513C7.74751 35.5819 8.2058 35.5067 8.70125 35.4258C9.07283 35.3679 9.46918 35.3043 9.87793 35.2465V29.1869C9.87793 28.2733 10.0761 27.4002 10.4291 26.6023C10.8007 25.7696 11.3395 25.0237 12.0083 24.3993C12.6772 23.7748 13.4761 23.2718 14.3679 22.9248C15.2225 22.5953 16.1577 22.4102 17.1362 22.4102H29.4108C30.3893 22.4102 31.3245 22.5953 32.1791 22.9248C33.0709 23.2718 33.8698 23.7748 34.5387 24.3993C35.2075 25.0237 35.7463 25.7696 36.1179 26.6023C36.4709 27.4002 36.6691 28.2733 36.6691 29.1869V33.0551C37.1026 33.0493 37.5361 33.0493 37.9758 33.0493V29.1869C37.9758 28.2733 38.174 27.4002 38.527 26.6023C38.8986 25.7696 39.4374 25.0237 40.1062 24.3993C40.7751 23.7748 41.574 23.2718 42.4658 22.9248C43.3204 22.5953 44.2556 22.4102 45.2341 22.4102H57.5087C58.4872 22.4102 59.4224 22.5953 60.277 22.9248C61.1688 23.2718 61.9677 23.7748 62.6366 24.3993C63.3054 25.0237 63.8442 25.7696 64.2158 26.6023C64.5688 27.4002 64.767 28.2733 64.767 29.1869V35.1656C65.2315 35.2292 65.7269 35.3043 66.2595 35.3853C66.8479 35.472 67.4114 35.5588 67.9564 35.6455C68.2351 35.6917 68.52 35.7438 68.8049 35.8074C68.9845 35.8479 69.1579 35.8883 69.3251 35.9346V12.2973C69.3251 11.9273 69.2446 11.5746 69.1021 11.2508C68.9535 10.9154 68.7306 10.6147 68.4581 10.3545C68.1856 10.1001 67.8573 9.89196 67.5043 9.75319C67.1575 9.6202 66.7797 9.54503 66.3834 9.54503ZM26.7602 33.4483C28.005 33.3616 29.256 33.2864 30.5256 33.2286C31.6961 33.1707 32.8789 33.1303 34.0618 33.1014V29.1869C34.0618 28.6029 33.938 28.042 33.7088 27.5332C33.4735 27.0012 33.1267 26.5271 32.6931 26.1223C32.2658 25.7234 31.7518 25.3996 31.182 25.1741C30.6371 24.9601 30.0363 24.8445 29.4108 24.8445H17.1362C16.5107 24.8445 15.91 24.9601 15.365 25.1741C14.7952 25.3938 14.2874 25.7176 13.8539 26.1223C13.4265 26.5213 13.0797 27.0012 12.8382 27.5332C12.6091 28.042 12.4852 28.6029 12.4852 29.1869V34.8591C13.4885 34.7204 14.5041 34.5931 15.5446 34.4659C16.6655 34.3329 17.7803 34.2115 18.8826 34.0959C19.31 34.0496 19.7682 33.9976 20.2451 33.9513C20.691 33.9051 21.1555 33.8646 21.6509 33.8183C22.4932 33.7432 23.3292 33.6738 24.1529 33.6102C25.0014 33.5581 25.8684 33.5003 26.7602 33.4483ZM40.5893 33.0667C41.3387 33.0782 42.088 33.0956 42.8374 33.1187C43.6672 33.1418 44.4971 33.1765 45.3208 33.2112H45.327C46.6833 33.2575 48.0086 33.3153 49.2967 33.3847C50.5849 33.4541 51.8421 33.5408 53.0435 33.6391C54.79 33.7836 56.4807 33.9571 58.0847 34.1595C59.5215 34.3445 60.8839 34.5527 62.1597 34.784V29.1869C62.1597 28.6029 62.0359 28.042 61.8067 27.5332C61.5714 27.0012 61.2246 26.5271 60.7911 26.1223C60.3637 25.7234 59.8497 25.3996 59.2799 25.1741C58.735 24.9601 58.1342 24.8445 57.5087 24.8445H45.2403C44.6148 24.8445 44.0141 24.9601 43.4691 25.1741C42.8993 25.3938 42.3915 25.7176 41.958 26.1223C41.5306 26.5213 41.1838 27.0012 40.9423 27.5332C40.7132 28.042 40.5893 28.6029 40.5893 29.1869V33.0667ZM73.4125 48.4991H2.61347V62.4514H3.49908C3.84589 61.5378 4.20509 60.6878 4.60763 59.9304C5.04115 59.1209 5.5304 58.4039 6.12493 57.7852C6.83094 57.0451 7.66081 56.4727 8.65789 56.091C9.65498 55.7152 10.8193 55.5244 12.2189 55.5533L61.5714 55.4955C63.163 55.4955 64.5255 55.5649 65.7145 55.7788C66.9222 55.9927 67.9626 56.357 68.8978 56.9352C69.7648 57.473 70.508 58.1842 71.1768 59.1151C71.8147 60.0055 72.3845 61.0983 72.9294 62.4456H73.4001V48.4991H73.4125Z" fill="#1A3D78"/>
  </g>
  <defs>
    <clipPath id="clip0_41_2325">
      <rect width="76.1003" height="71.0506" fill="white"/>
    </clipPath>
  </defs>
</svg>