<svg xmlns="http://www.w3.org/2000/svg" width="24" height="24" viewBox="0 0 24 24" fill="none">
  <g clip-path="url(#clip0_39_1121)">
    <path d="M15.0762 10.0371L14.6341 8.98859C14.6341 8.98859 15.66 6.67385 15.5709 6.58479L14.2123 5.2578C14.1176 5.16631 11.8012 6.22207 11.8012 6.22207L10.7325 5.79053C10.7325 5.79053 9.78605 3.44421 9.65813 3.44421H7.7393C7.60652 3.44421 6.73373 5.79701 6.73373 5.79701L5.66582 6.23017C5.66582 6.23017 3.30007 5.2246 3.20939 5.31123L1.85163 6.64146C1.75772 6.73457 2.83858 9.00236 2.83858 9.00236L2.39814 10.0508C2.39814 10.0508 0 10.973 0 11.0993V12.9793C0 13.1088 2.40381 13.9646 2.40381 13.9646L2.84506 15.0098C2.84506 15.0098 1.81844 17.3262 1.90831 17.4153L3.26768 18.7439C3.35917 18.8337 5.67716 17.7764 5.67716 17.7764L6.74669 18.2111C6.74669 18.2111 7.69072 20.5558 7.82026 20.5558H9.73909C9.87107 20.5558 10.7463 18.203 10.7463 18.203L11.815 17.7699C11.815 17.7699 14.1775 18.7755 14.269 18.6888L15.6276 17.3586C15.7207 17.2687 14.639 14.9993 14.639 14.9993L15.0811 13.9508C15.0811 13.9508 17.48 13.0254 17.48 12.8991V11.0208C17.4808 10.892 15.0762 10.0371 15.0762 10.0371ZM8.74001 14.741C7.19765 14.741 5.93948 13.5104 5.93948 11.9988C5.93948 10.4888 7.19765 9.2582 8.74001 9.2582C10.2848 9.2582 11.5405 10.4888 11.5405 11.9988C11.5405 13.5112 10.2848 14.741 8.74001 14.741Z" fill="#1A3D78"/>
    <path d="M23.1054 7.84782L23.1167 7.30051C23.1167 7.30051 24.0219 6.48602 24 6.42934L23.6648 5.58085C23.6397 5.52255 22.4147 5.53065 22.4147 5.53065L22.031 5.13231C22.031 5.13231 22.0779 3.91624 22.0204 3.89114L21.1776 3.51304C21.1177 3.48632 20.2733 4.35101 20.2733 4.35101L19.7195 4.32915C19.7195 4.32915 18.8783 3.42317 18.8216 3.44503L17.9626 3.76322C17.9051 3.78346 17.9334 4.99224 17.9334 4.99224L17.5326 5.3671C17.5326 5.3671 16.2996 5.30071 16.2745 5.35577L15.9045 6.1816C15.8786 6.23989 16.7667 7.08758 16.7667 7.08758L16.7554 7.63165C16.7554 7.63165 15.851 8.44776 15.8729 8.50444L16.2089 9.35374C16.2332 9.41042 17.4582 9.40151 17.4582 9.40151L17.8411 9.80147C17.8411 9.80147 17.7966 11.0175 17.8541 11.0426L18.6969 11.4191C18.7552 11.4458 19.6004 10.586 19.6004 10.586L20.155 10.6046C20.155 10.6046 20.9946 11.5106 21.0529 11.4904L21.9095 11.1722C21.9686 11.1519 21.9403 9.94154 21.9403 9.94154L22.3402 9.56992C22.3402 9.56992 23.5733 9.63307 23.5992 9.57801L23.9692 8.75219C23.9927 8.69551 23.1054 7.84782 23.1054 7.84782ZM21.1679 8.01542C20.8708 8.67932 20.0773 8.97403 19.3972 8.67041C18.7204 8.36842 18.4095 7.58064 18.7066 6.91512C19.0021 6.25284 19.798 5.95976 20.4749 6.26175C21.1525 6.56698 21.4634 7.35314 21.1679 8.01542Z" fill="#1A3D78"/>
  </g>
  <defs>
    <clipPath id="clip0_39_1121">
      <rect width="24" height="24" fill="white"/>
    </clipPath>
  </defs>
</svg>