<svg xmlns="http://www.w3.org/2000/svg" width="8" height="8" viewBox="0 0 8 8" fill="none">
  <g clip-path="url(#clip0_88_7)">
    <path d="M8 4C8 1.79075 6.20925 0 4 0C1.79075 0 0 1.79075 0 4C0 6.20925 1.79075 8 4 8C6.20925 8 8 6.20925 8 4ZM0.49225 4C0.49225 2.07 2.07 0.5 4 0.5C5.93 0.5 7.5 2.07 7.5 4C7.5 5.93 5.93 7.5 4 7.5C2.07 7.5 0.49225 5.93 0.49225 4ZM4.25275 5.7525V2.9365L5.157 3.84075C5.2545 3.93825 5.41275 3.93825 5.5105 3.84075C5.60825 3.74325 5.608 3.58475 5.5105 3.48725L3.99475 2.0105L2.479 3.48725C2.43025 3.536 2.40575 3.6 2.40575 3.664C2.40575 3.728 2.43025 3.79175 2.479 3.84075C2.5765 3.93825 2.735 3.93825 2.8325 3.84075L3.75225 2.92075V5.7525C3.75225 5.8905 3.86425 6.0025 4.00225 6.0025C4.14025 6.0025 4.25225 5.8905 4.25225 5.7525H4.25275Z" fill="white"/>
  </g>
  <defs>
    <clipPath id="clip0_88_7">
      <rect width="8" height="8" fill="white"/>
    </clipPath>
  </defs>
</svg>