<svg width="31" height="28" viewBox="0 0 31 28" fill="none" xmlns="http://www.w3.org/2000/svg">
<path d="M27.7439 11.9315V24.2818H22.2549V11.9315H27.7439ZM29.1161 9.18701H20.8825C20.5186 9.18701 20.1696 9.33159 19.9122 9.58893C19.6549 9.84628 19.5103 10.1953 19.5103 10.5593V25.6541C19.5103 26.0181 19.6549 26.3671 19.9122 26.6245C20.1696 26.8818 20.5186 27.0264 20.8825 27.0264H29.1161C29.48 27.0264 29.8291 26.8818 30.0864 26.6245C30.3439 26.3671 30.4884 26.0181 30.4884 25.6541V10.5593C30.4884 10.1953 30.3439 9.84628 30.0864 9.58893C29.8291 9.33159 29.48 9.18701 29.1161 9.18701Z" fill="#1A3D78"/>
<path d="M24.9993 0.953461H3.72932C3.36537 0.953461 3.01633 1.09804 2.75899 1.35538C2.50163 1.61273 2.35706 1.96178 2.35706 2.32571V17.4206C2.35706 17.7845 2.50163 18.1335 2.75899 18.3909C3.01633 18.6482 3.36537 18.7928 3.72932 18.7928H16.7657V16.0482H5.10158V3.69797H23.6271V6.44249H26.3716V2.32571C26.3716 1.96178 26.227 1.61273 25.9696 1.35538C25.7123 1.09804 25.3632 0.953461 24.9993 0.953461Z" fill="#1A3D78"/>
<path d="M16.7658 21.5374V24.2818H1.67096C1.30702 24.2818 0.95798 24.1372 0.700631 23.88C0.443282 23.6225 0.298706 23.2735 0.298706 22.9096C0.298706 22.5457 0.443282 22.1967 0.700631 21.9393C0.95798 21.682 1.30702 21.5374 1.67096 21.5374H16.7658Z" fill="#1A3D78"/>
</svg>
