<svg width="15" height="21" viewBox="0 0 15 21" fill="none" xmlns="http://www.w3.org/2000/svg">
<path d="M2.1036 12.6267C2.2971 12.9501 2.4882 13.2648 2.6682 13.5807C3.2967 14.6826 3.9183 15.7794 4.5396 16.8858L4.6161 17.004C4.722 17.1921 4.9206 17.2152 5.1363 17.2164L8.9997 17.1051C9.0006 17.1051 9.0018 17.1051 9.0027 17.1051C9.2199 17.1051 9.4197 17.1177 9.5259 16.9284L11.9247 12.7533C12.0399 12.5481 12.1569 12.3585 12.2742 12.1539C13.1649 10.602 14.0853 9.0039 14.0853 7.0395C14.0853 3.1563 10.926 0 7.0425 0C3.159 0 0 3.1599 0 7.0431C0 9.1134 1.1175 10.9797 2.1036 12.6267ZM7.0425 1.2045C10.2642 1.2045 12.8853 3.8253 12.8853 7.0473C12.8853 8.6922 12.0828 10.0911 11.2332 11.5716C11.1144 11.7792 10.995 11.9868 10.8777 12.1953L8.652 16.1631L5.4915 16.1481C4.9002 15.0957 4.3089 14.0436 3.7107 12.9954C3.5265 12.6723 3.3312 12.3459 3.1332 12.015C2.1828 10.4274 1.2 8.7858 1.2 7.047C1.2 3.8253 3.8208 1.2045 7.0425 1.2045Z" fill="#1A3D78"/>
<path d="M9.58173 18.4551C9.58173 18.2067 9.38013 18.0051 9.13173 18.0051H5.53173C5.28303 18.0051 5.08173 18.2067 5.08173 18.4551C5.08173 18.7035 5.28303 18.9051 5.53173 18.9051H9.13173C9.38013 18.9051 9.58173 18.7035 9.58173 18.4551Z" fill="#1A3D78"/>
<path d="M5.83171 19.5051C5.58301 19.5051 5.38171 19.7067 5.38171 19.9551C5.38171 20.2035 5.58301 20.4051 5.83171 20.4051H8.83171C9.08011 20.4051 9.28171 20.2035 9.28171 19.9551C9.28171 19.7067 9.08011 19.5051 8.83171 19.5051H5.83171Z" fill="#1A3D78"/>
<path d="M12.8859 6C13.5 9 10.7614 16.5 8 16.5C3.5 18 0.5 9.76142 0.5 7C0.5 4.23858 4.12444 1 6.88586 1C9.64729 1 12.8859 3.23858 12.8859 6Z" fill="#1A3D78"/>
</svg>
