<svg xmlns="http://www.w3.org/2000/svg" width="10" height="10" viewBox="0 0 10 10" fill="none">
  <g clip-path="url(#clip0_82_10)">
    <path d="M9.89368 5.23385L8.65723 6.47029C8.59612 6.53109 8.51619 6.56181 8.43627 6.56181C8.35635 6.56181 8.27643 6.53109 8.21531 6.47029C8.09308 6.34806 8.09308 6.15029 8.21531 6.02837L8.94464 5.29872H5.31084V8.93315L6.02826 8.21604C6.15018 8.09381 6.34795 8.09381 6.47018 8.21604C6.5921 8.33796 6.5921 8.53573 6.47018 8.65797L5.21995 9.90789C5.21023 9.91792 5.19738 9.92199 5.18641 9.93014C5.16479 9.94675 5.1441 9.96462 5.11871 9.97527C5.08048 9.99094 5.03973 9.99941 4.99899 9.99941C4.99899 9.99941 4.99867 9.99941 4.99836 9.99941C4.9946 9.99941 4.99178 9.99753 4.98802 9.99721C4.91186 9.99471 4.83632 9.96618 4.77803 9.90789L3.5281 8.65797C3.40587 8.53573 3.40587 8.33796 3.5281 8.21604C3.65002 8.09381 3.84779 8.09381 3.97003 8.21604L4.70124 8.94725V5.29872H1.05239L1.78235 6.02837C1.90427 6.15029 1.90427 6.34806 1.78235 6.47029C1.72155 6.53109 1.64131 6.56181 1.56139 6.56181C1.48147 6.56181 1.40123 6.53109 1.34043 6.47029L0.0895657 5.22006C0.0309561 5.16145 -0.00195312 5.08215 -0.00195312 4.99909C-0.00195312 4.95741 0.00650923 4.91666 0.0224937 4.87874C0.0381647 4.84082 0.0613579 4.80634 0.0898791 4.77782L1.34043 3.52821C1.46235 3.40598 1.66043 3.40598 1.78235 3.52821C1.90427 3.65013 1.90427 3.8479 1.78235 3.97013L1.06524 4.68661H4.70124V1.05031L3.9694 1.78246C3.84717 1.90438 3.6494 1.90438 3.52748 1.78246C3.40524 1.66022 3.40524 1.46245 3.52748 1.34053L4.77176 0.0959397C4.82473 0.0360764 4.90245 -0.000907282 4.99805 -0.0012207C5.03879 -0.0012207 5.07954 0.00692824 5.11777 0.0229127C5.15632 0.0385837 5.1908 0.0617769 5.21964 0.0906116L6.46956 1.34053C6.59148 1.46245 6.59148 1.66022 6.46956 1.78246C6.40844 1.84326 6.32852 1.87398 6.2486 1.87398C6.16867 1.87398 6.08875 1.84326 6.02763 1.78246L5.31084 1.06566V4.68661H8.93179L8.21531 3.97013C8.09308 3.8479 8.09308 3.65013 8.21531 3.52821C8.33723 3.40598 8.535 3.40598 8.65723 3.52821L9.90684 4.77782C9.93568 4.80665 9.95887 4.84144 9.97485 4.87968C9.99053 4.91792 9.99867 4.95866 9.99867 4.99941C9.99867 5.09939 9.95824 5.18025 9.89368 5.23385Z" fill="#1A3D78"/>
  </g>
  <defs>
    <clipPath id="clip0_82_10">
      <rect width="10" height="10" fill="white"/>
    </clipPath>
  </defs>
</svg>