<svg width="31" height="28" viewBox="0 0 31 28" fill="none" xmlns="http://www.w3.org/2000/svg">
<path d="M29.2946 1.10219C29.153 0.595967 28.67 0.228394 28.0958 0.228394C27.7048 0.228394 27.3553 0.399617 27.1286 0.665759L27.1267 0.66762C25.5042 2.46453 23.3789 3.81665 20.9545 4.53691L20.8595 4.5611C19.2161 5.06361 17.3036 5.42187 15.3278 5.56519L15.2426 5.56983C12.9698 5.65731 10.8394 6.13655 8.89324 6.9359L9.00609 6.89403C5.57501 8.63976 3.28432 11.9982 3.28432 15.8581C3.28432 15.9176 3.28531 15.9763 3.2863 16.035V16.0257C3.2962 16.3216 3.31699 16.6128 3.35362 16.9051C3.49617 17.9742 3.79215 18.9457 4.22178 19.8483L4.19407 19.7833C2.7369 21.5951 1.46385 23.6599 0.473923 25.8654L0.398688 26.0552C0.335333 26.1902 0.298706 26.3475 0.298706 26.5131C0.298706 26.9895 0.604593 27.3999 1.04115 27.5796L1.04907 27.5823C1.19162 27.6419 1.35694 27.6772 1.53116 27.6772H1.53512H1.53611C2.04296 27.6772 2.47951 27.3906 2.67056 26.9794L2.67354 26.9718C3.52785 25.0614 4.48807 23.4236 5.60372 21.8956L5.53837 21.9906C6.6758 23.432 8.15377 24.5775 9.86436 25.334L9.93365 25.3621C11.4007 25.9929 13.1173 26.3596 14.9239 26.3596C14.9496 26.3596 14.9753 26.3596 15.0001 26.3596H14.9961C16.9333 26.3522 18.7776 25.9817 20.4576 25.3182L20.3635 25.3509C25.7329 23.0692 29.5511 18.3558 30.246 12.7454L30.2539 12.6719C30.4033 11.599 30.4884 10.3585 30.4884 9.09946C30.4884 6.25101 30.0519 3.49747 29.2372 0.896538L29.2927 1.10127L29.2946 1.10219ZM27.8077 12.3267C27.2355 17.1841 23.9985 21.2229 19.5192 23.1602L19.43 23.1947C18.1629 23.7167 16.6859 24.021 15.1337 24.021C13.6271 24.021 12.1917 23.7344 10.885 23.217L10.9572 23.2422C9.36939 22.5368 8.07656 21.4546 7.17374 20.1174L7.15196 20.0829C10.4722 16.8306 15.0852 14.7647 20.2121 14.6186L20.2408 14.6177C20.8703 14.5582 21.3583 14.0631 21.3583 13.4601C21.3583 12.818 20.804 12.2969 20.121 12.2969C20.0784 12.2969 20.0368 12.2987 19.9962 12.3025H20.0011C14.5843 12.5128 9.71488 14.5619 6.04622 17.7984L6.05809 17.7881C5.95712 17.4652 5.87199 17.0753 5.81853 16.6752L5.81457 16.6361C5.78784 16.4128 5.77002 16.1875 5.76409 15.9632C5.7631 15.9186 5.76211 15.8656 5.76211 15.8126C5.76211 12.872 7.5014 10.3139 10.0663 8.99617L10.1099 8.9757C11.6937 8.34384 13.531 7.94836 15.4574 7.88321L15.4842 7.88228C17.7491 7.71757 19.8488 7.32023 21.8485 6.71164L21.6553 6.76281C23.8709 6.0742 25.7844 5.04314 27.4267 3.72266L27.4038 3.74127C27.8039 5.35581 28.0324 7.20948 28.0324 9.11342C28.0324 10.245 27.9513 11.3598 27.7949 12.4514L27.8097 12.3239L27.8077 12.3267Z" fill="#1A3D78"/>
</svg>
