<svg width="19" height="19" viewBox="0 0 19 19" fill="none" xmlns="http://www.w3.org/2000/svg">
<path d="M0.394775 5.15964C0.251221 5.08782 0.149536 5.01006 0.0897217 4.9263C0.0299072 4.84255 0 4.72885 0 4.58526C0 4.44166 0.0299072 4.32801 0.0897217 4.24421C0.149536 4.16046 0.251221 4.08269 0.394775 4.01088L8.01515 0.205701C8.32617 0.0541314 8.71697 -0.0136757 9.1875 0.00227935C9.65803 -0.0136757 10.0488 0.0541314 10.3598 0.205701L17.9802 4.01088C18.1238 4.08269 18.2255 4.16046 18.2853 4.24421C18.3451 4.32801 18.375 4.44166 18.375 4.58526C18.375 4.72885 18.3451 4.84255 18.2853 4.9263C18.2255 5.01006 18.1238 5.08782 17.9802 5.15964L10.3598 8.96482C10.0488 9.11638 9.65803 9.18418 9.1875 9.16826C8.71697 9.18418 8.32617 9.11638 8.01515 8.96482L0.394775 5.15964ZM0.394775 14.3735C0.251221 14.3017 0.149536 14.2239 0.0897217 14.1401C0.0299072 14.0563 0 13.9427 0 13.7991C0 13.6555 0.0299072 13.5418 0.0897217 13.458C0.149536 13.3743 0.251221 13.2965 0.394775 13.2247L2.30884 12.2674L8.01515 15.1154C8.33413 15.2669 8.72493 15.3307 9.1875 15.3068C9.65007 15.3307 10.0409 15.2669 10.3598 15.1154L16.0661 12.2674L17.9802 13.2247C18.1238 13.2965 18.2255 13.3743 18.2853 13.458C18.3451 13.5418 18.375 13.6555 18.375 13.7991C18.375 13.9427 18.3451 14.0563 18.2853 14.1401C18.2255 14.2239 18.1238 14.3017 17.9802 14.3735L10.3598 18.1787C10.0409 18.3302 9.65007 18.394 9.1875 18.3701C8.72493 18.394 8.33413 18.3302 8.01515 18.1787L0.394775 14.3735ZM0.394775 9.77849C0.251221 9.70672 0.149536 9.62895 0.0897217 9.54515C0.0299072 9.4614 0 9.34775 0 9.20415C0 9.06056 0.0299072 8.94686 0.0897217 8.86311C0.149536 8.77935 0.251221 8.70159 0.394775 8.62977L2.30884 7.6725L8.01515 10.5204C8.33413 10.672 8.72493 10.7358 9.1875 10.7118C9.65007 10.7358 10.0409 10.672 10.3598 10.5204L16.0661 7.6725L17.9802 8.62977C18.1238 8.70159 18.2255 8.77935 18.2853 8.86311C18.3451 8.94686 18.375 9.06056 18.375 9.20415C18.375 9.34775 18.3451 9.4614 18.2853 9.54515C18.2255 9.62895 18.1238 9.70672 17.9802 9.77849L10.3598 13.5837C10.0409 13.7353 9.65007 13.7991 9.1875 13.7751C8.72493 13.7991 8.33413 13.7353 8.01515 13.5837L0.394775 9.77849Z" fill="#1A3D78"/>
</svg>
