<svg width="33" height="35" viewBox="0 0 33 35" fill="none" xmlns="http://www.w3.org/2000/svg">
<path d="M29.2384 13.2176L29.9699 13.055L32.6523 12.7299C32.7865 12.1714 32.8412 11.5968 32.8148 11.023C32.8412 10.4492 32.7865 9.87454 32.6523 9.31608L29.9699 8.99094L29.2384 8.82838L28.7507 7.69042L29.1571 7.04017L30.7828 4.84555C30.1236 3.94268 29.3285 3.1475 28.4255 2.48838L26.2309 4.11402L25.5807 4.52042L24.4428 4.03273L24.2801 3.30119L23.9551 0.618885C23.3965 0.48455 22.8219 0.429821 22.2482 0.45632C21.6743 0.429821 21.0997 0.48455 20.5413 0.618885L20.2161 3.30119L20.0536 4.03273L18.9155 4.52042L18.2653 4.11402L16.0707 2.48838C15.1678 3.1475 14.3727 3.94268 13.7135 4.84555L15.3392 7.04017L15.7456 7.69042L15.2579 8.82838L14.5263 8.99094L11.844 9.31608C11.7097 9.87454 11.655 10.4492 11.6815 11.023C11.655 11.5968 11.7097 12.1714 11.844 12.7299L14.5263 13.055L15.2579 13.2176L15.7456 14.3556L15.3392 15.0058L13.7135 17.2004C14.3727 18.1033 15.1678 18.8984 16.0707 19.5577L18.2653 17.9319L18.9155 17.5256L20.0536 18.0133L20.2161 18.7448L20.5413 21.4271C21.0997 21.5614 21.6743 21.6161 22.2482 21.5896C22.8219 21.6161 23.3965 21.5614 23.9551 21.4271L24.2801 18.7448L24.4428 18.0133L25.5807 17.5256L26.2309 17.9319L28.4255 19.5577C29.3285 18.8984 30.1236 18.1033 30.7828 17.2004L29.1571 15.0058L28.7507 14.3556L29.2384 13.2176ZM22.2482 14.2743C21.6052 14.2743 20.9765 14.0836 20.4418 13.7263C19.9071 13.3691 19.4905 12.8613 19.2444 12.2672C18.9983 11.6731 18.9338 11.0194 19.0594 10.3887C19.1848 9.75801 19.4945 9.17869 19.9491 8.72398C20.4039 8.2693 20.9832 7.95963 21.6139 7.83419C22.2445 7.70873 22.8982 7.77312 23.4923 8.0192C24.0865 8.26527 24.5942 8.68201 24.9514 9.21667C25.3088 9.75134 25.4994 10.3799 25.4994 11.023C25.4994 11.8853 25.1569 12.7123 24.5472 13.322C23.9374 13.9317 23.1104 14.2743 22.2482 14.2743Z" fill="#1A3D78"/>
<path d="M10.0559 26.4665V31.3435H3.55328V26.4665H10.0559ZM11.6815 23.2154H1.92764C1.49651 23.2154 1.08301 23.3866 0.778142 23.6914C0.473274 23.9964 0.302002 24.4099 0.302002 24.8409V32.9692C0.302002 33.4003 0.473274 33.8138 0.778142 34.1186C1.08301 34.4236 1.49651 34.5948 1.92764 34.5948H11.6815C12.1127 34.5948 12.5261 34.4236 12.831 34.1186C13.1359 33.8138 13.3071 33.4003 13.3071 32.9692V24.8409C13.3071 24.4099 13.1359 23.9964 12.831 23.6914C12.5261 23.3866 12.1127 23.2154 11.6815 23.2154Z" fill="#1A3D78"/>
<path d="M11.6815 3.70759C11.6815 3.27644 11.5102 2.86294 11.2054 2.55808C10.9005 2.25322 10.487 2.08194 10.0559 2.08194H1.92764C1.49651 2.08194 1.08301 2.25322 0.778142 2.55808C0.473274 2.86294 0.302002 3.27644 0.302002 3.70759V18.3384C0.302002 18.7695 0.473274 19.183 0.778142 19.4878C1.08301 19.7928 1.49651 19.964 1.92764 19.964H10.0559C10.487 19.964 10.9005 19.7928 11.2054 19.4878C11.5102 19.183 11.6815 18.7695 11.6815 18.3384C11.6815 17.9072 11.5102 17.4937 11.2054 17.1889C10.9005 16.884 10.487 16.7127 10.0559 16.7127H3.55328V5.33323H10.0559C10.487 5.33323 10.9005 5.16196 11.2054 4.85709C11.5102 4.55223 11.6815 4.13873 11.6815 3.70759Z" fill="#1A3D78"/>
<path d="M26.3122 24.8409V31.3435H19.8097V24.8409C19.8097 24.4099 19.6383 23.9964 19.3335 23.6914C19.0287 23.3866 18.6152 23.2154 18.1839 23.2154C17.7528 23.2154 17.3394 23.3866 17.0345 23.6914C16.7296 23.9964 16.5583 24.4099 16.5583 24.8409V32.9692C16.5583 33.4003 16.7296 33.8138 17.0345 34.1186C17.3394 34.4236 17.7528 34.5948 18.1839 34.5948H27.9378C28.369 34.5948 28.7825 34.4236 29.0873 34.1186C29.3922 33.8138 29.5635 33.4003 29.5635 32.9692V24.8409C29.5635 24.4099 29.3922 23.9964 29.0873 23.6914C28.7825 23.3866 28.369 23.2154 27.9378 23.2154C27.5067 23.2154 27.0932 23.3866 26.7884 23.6914C26.4834 23.9964 26.3122 24.4099 26.3122 24.8409Z" fill="#1A3D78"/>
</svg>
