<svg xmlns="http://www.w3.org/2000/svg" width="80" height="75" viewBox="0 0 80 75" fill="none">
  <g clip-path="url(#clip0_41_2312)">
    <path d="M21.7841 8.66356H2.51005V22.4756H21.7906L21.7841 8.66356ZM24.125 6.32007H77.3887C77.6944 6.32007 77.987 6.37471 78.2536 6.48399C78.5267 6.59327 78.7803 6.75112 78.9884 6.9454L79.0014 6.95755C79.2095 7.15182 79.3786 7.3886 79.4891 7.64359C79.5997 7.89251 79.6647 8.16572 79.6647 8.45107V22.7002C79.6647 22.9856 79.6062 23.2588 79.4891 23.5138C79.3721 23.7748 79.203 24.0055 78.9949 24.2059L78.9689 24.2241C78.7608 24.4123 78.5202 24.5641 78.2536 24.6673C77.987 24.7705 77.6944 24.8312 77.3887 24.8312H55.9558C55.8583 24.8312 55.7867 24.7584 55.7867 24.6734V8.66356H44.9012V12.8527L52.8995 21.3463C53.1271 21.5892 53.2312 21.8927 53.2117 22.1963C53.1922 22.4938 53.0491 22.7852 52.789 23.0038L52.776 23.0098C52.6589 23.1009 52.5354 23.1738 52.3988 23.2163C52.2623 23.2648 52.1127 23.2891 51.9696 23.2891H27.9421C27.5975 23.2891 27.2789 23.1556 27.0578 22.9431C26.8302 22.7306 26.6871 22.4391 26.6871 22.1174C26.6871 21.9474 26.7261 21.7895 26.7977 21.6438C26.8692 21.492 26.9732 21.3585 27.1033 21.2492L35.3357 12.8466V8.66356H24.3006V24.6551C24.3006 24.7462 24.2226 24.813 24.1316 24.813H2.27595C1.97032 24.813 1.6777 24.7584 1.41109 24.6491C1.13147 24.5398 0.884368 24.3819 0.669779 24.1877C0.461692 23.9934 0.292622 23.7566 0.175573 23.4955C0.0585244 23.2527 0 22.9795 0 22.6941V8.44499C0 8.15965 0.0585244 7.88644 0.175573 7.63145C0.286119 7.37039 0.45519 7.13968 0.669779 6.9454C0.676282 6.93326 0.682784 6.92719 0.689287 6.92719C0.897374 6.73898 1.13797 6.5872 1.40459 6.48399C1.6777 6.37471 1.97032 6.32007 2.27595 6.32007H24.125ZM2.27595 38.0907H77.6293C77.935 38.0907 78.2276 38.1515 78.4942 38.2547C78.7738 38.3639 79.0209 38.5218 79.2355 38.7161L79.242 38.7221C79.4501 38.9164 79.6127 39.1471 79.7297 39.4021C79.8403 39.651 79.9053 39.9242 79.9053 40.2157V66.1155C79.9053 66.4008 79.8403 66.674 79.7297 66.9229C79.6192 67.1719 79.4566 67.3965 79.2615 67.5908C79.255 67.5968 79.2485 67.609 79.242 67.6151L79.2355 67.6211C79.0274 67.8154 78.7803 67.9733 78.5007 68.0765C78.2341 68.1797 77.9415 68.2404 77.6358 68.2404H57.2173C57.1653 68.2525 57.1133 68.2647 57.0548 68.2768C56.9897 68.289 56.9247 68.289 56.8597 68.289C56.7947 68.289 56.7296 68.2829 56.6646 68.2768C56.6061 68.2708 56.5541 68.2586 56.502 68.2404H23.4032C23.3512 68.2525 23.2992 68.2647 23.2407 68.2768C23.1757 68.289 23.1106 68.289 23.0456 68.289C22.9806 68.289 22.9155 68.2829 22.8505 68.2768C22.792 68.2708 22.74 68.2586 22.688 68.2404H2.27595C1.97032 68.2404 1.6777 68.1858 1.41109 68.0765C1.14448 67.9733 0.897374 67.8215 0.69579 67.6333C0.682784 67.6272 0.676282 67.6211 0.669779 67.609C0.461692 67.4147 0.292622 67.1779 0.175573 66.9229C0.0585244 66.674 0 66.4008 0 66.1155V40.2157C0 39.9303 0.0585244 39.6571 0.175573 39.4021C0.292622 39.1411 0.461692 38.9104 0.669779 38.71C0.676282 38.7039 0.682784 38.6979 0.69579 38.6918C0.903877 38.5036 1.14448 38.3518 1.41109 38.2486C1.6777 38.1454 1.97032 38.0907 2.27595 38.0907ZM77.3952 40.4342H58.1147V65.8969H77.3952V40.4342ZM55.6047 40.4342H24.3006V46.1047H55.6047V40.4342ZM21.7906 40.4342H2.51005V65.8969H21.7906V40.4342ZM24.3006 65.8908H55.6047V48.4543H24.3006V65.8908ZM42.3912 8.66356H37.8458V13.2898C37.8458 13.302 37.8458 13.3141 37.8393 13.3323C37.8328 13.4598 37.8068 13.5934 37.7547 13.7148C37.7027 13.8484 37.6182 13.9698 37.5141 14.0791L30.7838 20.9456H49.1865L42.7293 14.0912C42.6253 13.988 42.5342 13.8605 42.4757 13.727C42.4172 13.5934 42.3847 13.4416 42.3847 13.2898V8.66356H42.3912ZM61.1125 41.7456C61.2945 41.7456 61.4701 41.782 61.6262 41.8428L61.6327 41.8488C61.7952 41.9095 61.9383 42.0067 62.0619 42.116C62.1854 42.2313 62.2829 42.3709 62.3545 42.5227C62.4195 42.6684 62.4585 42.8324 62.4585 43.0024C62.4585 43.1723 62.4195 43.3302 62.3545 43.482C62.2829 43.6338 62.1854 43.7734 62.0619 43.8888L62.0488 43.8948C61.9253 44.0041 61.7822 44.0952 61.6197 44.1559C61.4636 44.2166 61.288 44.253 61.106 44.253C60.9239 44.253 60.7483 44.2166 60.5922 44.1559C60.4362 44.0952 60.2931 44.0041 60.1696 43.8948L60.1501 43.8827C60.0265 43.7673 59.929 43.6277 59.8639 43.4759L59.8574 43.4698C59.7924 43.3241 59.7599 43.1663 59.7599 42.9963C59.7599 42.8263 59.7989 42.6624 59.8639 42.5167C59.929 42.3649 60.033 42.2252 60.1566 42.1099C60.2801 41.9945 60.4297 41.9035 60.5922 41.8367L60.5987 41.8306C60.7678 41.776 60.9369 41.7456 61.1125 41.7456ZM14.3645 9.84137C14.5466 9.84137 14.7221 9.8778 14.8782 9.93851C15.0408 9.99923 15.1903 10.0964 15.3139 10.2117C15.4374 10.3271 15.5415 10.4667 15.6065 10.6185C15.6715 10.7642 15.7105 10.9281 15.7105 11.0981C15.7105 11.2681 15.6715 11.432 15.6065 11.5777C15.5415 11.7295 15.4439 11.8631 15.3269 11.9724L15.3074 11.9906C15.1838 12.0999 15.0408 12.1909 14.8782 12.2516C14.7221 12.3124 14.5466 12.3488 14.3645 12.3488C14.1824 12.3488 14.0133 12.3124 13.8508 12.2516C13.6882 12.1909 13.5386 12.0938 13.4151 11.9784L13.4021 11.9663C13.285 11.8509 13.1875 11.7174 13.1225 11.5717C13.0574 11.426 13.0184 11.262 13.0184 11.092C13.0184 10.922 13.0574 10.7581 13.1225 10.6124L13.129 10.6063C13.194 10.4546 13.298 10.321 13.4151 10.2056C13.5386 10.0903 13.6882 9.99923 13.8508 9.93244L13.8573 9.92637C14.0198 9.8778 14.1889 9.84137 14.3645 9.84137ZM58.3813 8.66356H58.2968V22.4756H77.1611V8.66356H58.3813ZM64.3638 10.1996C64.4874 10.0903 64.6304 9.99923 64.793 9.93851C64.9491 9.8778 65.1246 9.84137 65.3067 9.84137C65.4888 9.84137 65.6644 9.8778 65.8204 9.93851L65.8269 9.94458C65.9895 10.0053 66.1325 10.1024 66.2561 10.2117C66.3797 10.3271 66.4772 10.4667 66.5487 10.6185C66.6137 10.7642 66.6528 10.9281 66.6528 11.0981C66.6528 11.2681 66.6137 11.432 66.5487 11.5777L66.5422 11.5838C66.4772 11.7295 66.3797 11.8631 66.2626 11.9724L66.2431 11.9906C66.1195 12.0999 65.9765 12.1909 65.8204 12.2516C65.6644 12.3124 65.4888 12.3488 65.3067 12.3488C65.1246 12.3488 64.9491 12.3124 64.793 12.2516C64.6304 12.1909 64.4809 12.0938 64.3573 11.9784C64.2338 11.8631 64.1362 11.7235 64.0647 11.5717C63.9997 11.426 63.9606 11.262 63.9606 11.092C63.9606 10.922 63.9997 10.7642 64.0647 10.6124C64.1362 10.4606 64.2338 10.321 64.3573 10.2056L64.3638 10.1996ZM18.5002 41.7456C18.6823 41.7456 18.8579 41.782 19.0139 41.8428L19.0204 41.8488C19.183 41.9156 19.326 42.0067 19.4496 42.116L19.4561 42.1281C19.5732 42.2435 19.6707 42.377 19.7357 42.5227L19.7422 42.5288C19.8073 42.6745 19.8398 42.8324 19.8398 43.0024C19.8398 43.1723 19.8007 43.3302 19.7357 43.482C19.6642 43.6338 19.5667 43.7734 19.4431 43.8888L19.4301 43.8948C19.3065 44.0041 19.1635 44.0952 19.0009 44.1559C18.8449 44.2166 18.6693 44.253 18.4872 44.253C18.3051 44.253 18.1296 44.2166 17.9735 44.1559C17.8109 44.0952 17.6614 43.998 17.5378 43.8827C17.4143 43.7673 17.3167 43.6277 17.2452 43.4759L17.2387 43.4698C17.1737 43.3241 17.1411 43.1663 17.1411 42.9963C17.1411 42.8263 17.1802 42.6624 17.2452 42.5167C17.3102 42.3649 17.4143 42.2252 17.5378 42.1099C17.6614 41.9945 17.8109 41.9035 17.9735 41.8367C18.1491 41.782 18.3181 41.7456 18.5002 41.7456Z" fill="#1A3D78"/>
  </g>
  <defs>
    <clipPath id="clip0_41_2312">
      <rect width="79.9053" height="74.6031" fill="white"/>
    </clipPath>
  </defs>
</svg>