<svg xmlns="http://www.w3.org/2000/svg" width="40" height="40" viewBox="0 0 40 40" fill="none">
  <g clip-path="url(#clip0_37_506)">
    <path d="M13.1217 26.8426C12.1842 25.7716 11.2142 24.6583 10.446 23.021C9.69401 21.4064 9.27734 19.7397 9.29036 18.008C9.30664 16.2762 9.74609 14.4923 10.7031 12.6499C10.7096 12.6369 10.7161 12.6271 10.7227 12.6141C11.9759 10.4917 13.7305 9.07241 15.6836 8.27814C17.321 7.60756 19.1016 7.3797 20.8463 7.5392C22.5846 7.69871 24.2871 8.24558 25.7747 9.12449C27.666 10.2443 29.222 11.9044 30.0781 14.0008C30.5404 15.1369 30.8529 16.4031 30.8919 17.7899C30.931 19.1733 30.6934 20.6642 30.0553 22.2397C29.0788 24.6583 26.7969 27.2495 25.3027 29.629C25.2214 29.6128 25.1367 29.6095 25.0521 29.6225L23.0371 29.922L26.1068 19.2449C26.1947 18.9422 26.0156 18.6264 25.7129 18.5386C25.4102 18.4539 25.0944 18.6297 25.0065 18.9324L21.7936 30.1108L18.7467 30.5633L15.5273 20.3289C15.7585 20.3745 16.0026 20.2736 16.1296 20.0587L18.4115 16.1753L19.5736 18.8413C19.7005 19.131 20.0358 19.2612 20.3223 19.1375C20.4655 19.0757 20.5697 18.9585 20.625 18.825L21.6536 16.2274L22.8581 19.4044C22.9687 19.7007 23.2975 19.8471 23.5937 19.7365C23.89 19.6258 24.0365 19.297 23.9258 19.0008L22.2103 14.4761C22.1615 14.3165 22.041 14.1798 21.875 14.1147C21.582 13.9975 21.25 14.144 21.1328 14.437L20.0684 17.129L19.0072 14.6942C18.9616 14.5867 18.8802 14.4923 18.7728 14.4305C18.5026 14.271 18.151 14.3621 17.9948 14.6323L15.2214 19.3524L15.0228 18.7241C14.9284 18.4246 14.6094 18.2553 14.3099 18.3498C14.0104 18.4442 13.8411 18.7632 13.9355 19.0626L17.6042 30.7326L15.3971 31.0613C14.8633 29.4826 14.0495 27.907 13.1217 26.8426ZM5.92448 6.01902C5.66732 5.77814 5.5306 5.45587 5.51758 5.13035C5.50456 4.80483 5.61849 4.4728 5.85612 4.21564C6.097 3.95848 6.41927 3.82176 6.74479 3.80874C7.07031 3.79572 7.40234 3.90965 7.6595 4.14728L9.70377 6.05157C9.96094 6.29246 10.0977 6.61473 10.1107 6.94025C10.1237 7.26902 10.0098 7.5978 9.77213 7.85496C9.53125 8.11212 9.20898 8.24884 8.88346 8.26186C8.55469 8.27488 8.22591 8.16095 7.96875 7.92332L5.92448 6.01902ZM2.58138 20.0718C2.23633 20.0783 1.92057 19.9448 1.6862 19.7267C1.44857 19.5021 1.29557 19.1896 1.28255 18.8348C1.26953 18.4832 1.40299 18.1577 1.6276 17.9201C1.85221 17.6824 2.16471 17.5294 2.51953 17.5197L5.30924 17.4253C5.66081 17.4123 5.98633 17.5457 6.22396 17.7703C6.46159 17.9949 6.61458 18.3074 6.62435 18.6623V18.6818H6.6276L6.62435 18.7274C6.61784 19.0561 6.48763 19.3524 6.27929 19.577C6.05469 19.8146 5.74219 19.9643 5.38737 19.9774H5.36784V19.9806H5.33854L2.58138 20.0718ZM37.321 16.1167L37.3633 16.1134C37.6953 16.0939 38.0046 16.2013 38.2454 16.3966C38.4993 16.6017 38.6719 16.9077 38.7109 17.256V17.269C38.7142 17.269 38.7142 17.3048 38.7142 17.3113C38.7337 17.6434 38.6263 17.9526 38.431 18.1935C38.2259 18.4474 37.9199 18.6199 37.5716 18.659L34.7949 18.952C34.4434 18.9878 34.1113 18.8771 33.8607 18.672C33.6068 18.4669 33.431 18.1609 33.3952 17.8126C33.3594 17.4643 33.4701 17.129 33.6751 16.8784C33.8802 16.6245 34.1862 16.4487 34.5345 16.4129C35.4622 16.312 36.3932 16.2046 37.321 16.1167ZM31.8197 5.0034C32.0182 4.71043 32.3112 4.52814 32.6302 4.46303C32.9492 4.40118 33.291 4.45978 33.5872 4.65509L33.5905 4.65835C33.8835 4.85366 34.069 5.14988 34.1309 5.46889C34.1927 5.7879 34.1341 6.1297 33.9388 6.42592L32.3861 8.74689C32.1908 9.03986 31.8945 9.2254 31.5723 9.29051C31.2533 9.35236 30.9115 9.29376 30.6152 9.09845C30.3223 8.90314 30.1367 8.60366 30.0716 8.28465C30.0098 7.96564 30.0684 7.62384 30.2637 7.32762L31.8197 5.0034ZM19.7624 1.24689C19.7721 0.892069 19.9219 0.576314 20.1595 0.351705C20.3906 0.130351 20.7096 -0.00311279 21.0547 0.000142415V-0.00311279C21.084 -0.00311279 21.1133 0.000142415 21.1426 0.00339762C21.4648 0.0294393 21.7546 0.175924 21.9629 0.394023C22.1842 0.625142 22.3177 0.940898 22.3145 1.2892H22.3177C22.3177 1.31199 22.3177 1.33478 22.3145 1.35431L22.2461 4.07892H22.2493C22.2493 4.10821 22.2461 4.13751 22.2428 4.16681C22.2168 4.49233 22.0703 4.77879 21.8522 4.98712C21.6178 5.20848 21.3021 5.34194 20.957 5.33868V5.34194C20.9277 5.34194 20.8984 5.33868 20.8691 5.33543C20.5436 5.30939 20.2572 5.1629 20.0488 4.9448C19.8275 4.71043 19.694 4.39467 19.6973 4.04962H19.694C19.694 4.02683 19.694 4.00405 19.6973 3.98452L19.7624 1.24689ZM24.5312 31.1981L24.3262 32.1583L24.2741 32.8419L16.0286 34.0692C15.9993 33.5776 15.9212 33.047 15.7975 32.4969L24.5312 31.1981ZM24.2578 34.3393L24.2643 34.7527L24.2741 34.896C24.2969 35.1662 24.3001 35.4396 24.2839 35.7098L24.1602 36.3055L16.5006 37.4448L16.3672 37.1388L16.0677 35.9149L16.0612 35.56L24.2578 34.3393ZM23.6556 37.8745C23.2585 38.5548 22.7116 39.0854 22.0866 39.4468C21.5299 39.7723 20.9082 39.9578 20.2865 39.9969C19.6549 40.0359 19.0169 39.9155 18.4342 39.6356C18.0371 39.4402 17.666 39.1701 17.3372 38.8185L23.6556 37.8745Z" fill="white"/>
  </g>
  <defs>
    <clipPath id="clip0_37_506">
      <rect width="40" height="40" fill="white"/>
    </clipPath>
  </defs>
</svg>