<svg xmlns="http://www.w3.org/2000/svg" width="96" height="89" viewBox="0 0 96 89" fill="none">
  <g clip-path="url(#clip0_41_2315)">
    <path d="M91.3497 29.819H85.6957C85.2914 29.819 84.9025 29.8801 84.5371 29.9906V23.3235C84.5371 19.3028 81.0334 16.0317 76.727 16.0317H30.4337C29.6536 16.0317 29.021 16.6221 29.021 17.3507C29.021 18.0792 29.6536 18.6697 30.4337 18.6697H76.7272C79.4756 18.6697 81.7118 20.7575 81.7118 23.3235V41.9635H60.7779L65.2337 37.8034C65.7856 37.288 65.7856 36.4531 65.2337 35.9379C64.682 35.4229 63.7875 35.4229 63.2359 35.9379L56.7819 41.9637H48.8618V39.5678C48.8618 38.8393 48.2292 38.2488 47.4491 38.2488C46.6689 38.2488 46.0363 38.8393 46.0363 39.5678V41.9637H37.8866L31.4326 35.9379C30.8807 35.4229 29.9863 35.4229 29.4347 35.9379C28.8829 36.4533 28.8829 37.2882 29.4347 37.8034L33.8906 41.9635H27.4821C26.7019 41.9635 26.0693 42.554 26.0693 43.2825C26.0693 44.0111 26.7019 44.6015 27.4821 44.6015H82.4514C82.9109 44.6015 83.299 44.9641 83.299 45.3929V50.4429C83.299 50.8719 82.9107 51.2342 82.4514 51.2342H12.349C11.8895 51.2342 11.5014 50.8717 11.5014 50.4429V45.3929C11.5014 44.9639 11.8897 44.6015 12.349 44.6015H18.3982C19.1783 44.6015 19.8109 44.0111 19.8109 43.2825C19.8109 42.554 19.1783 41.9635 18.3982 41.9635H13.4136V23.3234C13.4136 20.7573 15.6498 18.6695 18.3982 18.6695C19.1783 18.6695 19.8109 18.0791 19.8109 17.3505C19.8109 16.622 19.1783 16.0315 18.3982 16.0315C14.0917 16.0315 10.5881 19.3027 10.5881 23.3234V29.9902C10.2226 29.8799 9.83375 29.8187 9.42947 29.8187H3.77547C1.69367 29.819 0 31.4003 0 33.344V66.4988C0 67.2274 0.63262 67.8178 1.41276 67.8178H4.22657V71.4623C4.22657 72.1908 4.85919 72.7813 5.63932 72.7813H17.9454C18.7255 72.7813 19.3582 72.1908 19.3582 71.4623V67.8178H75.5595V71.4628C75.5595 72.1914 76.1921 72.7818 76.9722 72.7818H89.2783C90.0584 72.7818 90.6911 72.1914 90.6911 71.4628V67.8178H93.7126C94.4927 67.8178 95.1253 67.2274 95.1253 66.4988V33.344C95.1252 31.4003 93.4315 29.819 91.3497 29.819ZM2.82551 65.18V33.344C2.82551 32.8633 3.26064 32.4571 3.77547 32.4571H9.42947C9.94448 32.4571 10.3794 32.8633 10.3794 33.344V42.503C9.35701 43.1125 8.6759 44.1788 8.6759 45.3929V50.4429C8.6759 51.6572 9.35719 52.7233 10.3794 53.3328V65.18H5.63932H2.82551ZM16.5326 70.1434H7.05208V67.818H11.7924H16.5326V70.1434ZM17.9454 65.1798H13.2051V54.0561H81.9204V65.1798H17.9454ZM87.8652 70.144H78.3846V67.8185H87.8652V70.144ZM92.2995 65.1796H84.7456V53.1165C85.5848 52.4873 86.1241 51.5234 86.1241 50.4427V45.3927C86.1241 44.312 85.5846 43.3481 84.7456 42.719V33.3436C84.7456 32.863 85.1807 32.4567 85.6955 32.4567H91.3495C91.8645 32.4567 92.2995 32.863 92.2995 33.3436V65.1796Z" fill="#1A3D78"/>
    <path d="M47.38 30.6812C46.5999 30.6812 45.9673 31.2716 45.9673 32.0002V35.4693C45.9673 36.1976 46.5999 36.7883 47.38 36.7883C48.1602 36.7883 48.7928 36.1978 48.7928 35.4693V32.0002C48.7928 31.2716 48.1602 30.6812 47.38 30.6812Z" fill="#1A3D78"/>
    <path d="M27.4819 21.3704H21.2066C18.6291 21.3704 16.5325 23.3281 16.5325 25.7343V34.0621C16.5325 34.7907 17.1651 35.3811 17.9452 35.3811C18.7254 35.3811 19.358 34.7907 19.358 34.0621V25.7343C19.358 24.7826 20.1874 24.0084 21.2066 24.0084H27.4819C28.262 24.0084 28.8947 23.4179 28.8947 22.6894C28.8947 21.9608 28.2622 21.3704 27.4819 21.3704Z" fill="#1A3D78"/>
  </g>
  <defs>
    <clipPath id="clip0_41_2315">
      <rect width="95.1254" height="88.8132" fill="white"/>
    </clipPath>
  </defs>
</svg>