<svg width="18" height="17" viewBox="0 0 18 17" fill="none" xmlns="http://www.w3.org/2000/svg">
<path fill-rule="evenodd" clip-rule="evenodd" d="M2.6361 2.4905L2.637 2.4888L2.6388 2.48965L3.1131 2.04085C3.2061 1.95312 3.33097 1.9021 3.46235 1.89816C3.59373 1.89421 3.72178 1.93763 3.8205 2.0196L4.9095 2.92145C5.2083 3.1807 5.6061 3.33965 6.0435 3.33965C6.5061 3.33965 6.9255 3.16115 7.2279 2.87385C7.5141 2.60185 7.6959 2.23295 7.713 1.8241H7.7166L7.8111 0.45815C7.81978 0.33435 7.87799 0.218303 7.97392 0.13354C8.06986 0.0487772 8.19633 0.00164462 8.3277 0.00170008H8.9991H9.6714C9.9441 0.00170008 10.17 0.20145 10.188 0.45815L10.2825 1.8241H10.287C10.3041 2.2355 10.4877 2.6061 10.7766 2.8781C11.079 3.16285 11.4966 3.33965 11.9574 3.33965C12.4002 3.33965 12.8034 3.17645 13.1022 2.91125L14.1786 2.01875C14.2774 1.93689 14.4055 1.89362 14.5369 1.89772C14.6683 1.90183 14.7931 1.953 14.886 2.04085L15.3612 2.48965L15.363 2.48795V2.48965L15.3621 2.49135L15.8373 2.9393C15.9303 3.02703 15.9845 3.1449 15.9888 3.26898C15.9932 3.39306 15.9474 3.51406 15.8607 3.6074L14.9067 4.6376C14.6217 4.92858 14.4635 5.3105 14.4639 5.7069C14.4639 6.14465 14.6529 6.5399 14.9571 6.82635C15.2451 7.09665 15.6348 7.26835 16.0686 7.2845V7.2879L17.514 7.37715C17.7867 7.39415 17.9982 7.6075 17.9982 7.86505V8.5H18V8.5017H17.9982V9.1358C17.9983 9.25987 17.9484 9.37932 17.8586 9.46992C17.7689 9.56052 17.646 9.6155 17.5149 9.6237L16.0686 9.71465V9.7155C15.633 9.7325 15.2406 9.90505 14.9526 10.1779C14.6511 10.4635 14.4639 10.8579 14.4639 11.2931C14.4639 11.7062 14.6322 12.0819 14.9076 12.3641H14.9058L15.8616 13.3935C16.0416 13.5873 16.0308 13.8797 15.8382 14.0616L15.363 14.5103V14.5121L14.8869 14.96C14.7941 15.0476 14.6694 15.0986 14.5383 15.1027C14.4071 15.1068 14.2792 15.0637 14.1804 14.9821L13.1292 14.1143C12.8171 13.8232 12.396 13.66 11.9574 13.6603C11.4939 13.6603 11.0754 13.8389 10.7721 14.1262C10.4859 14.3981 10.3041 14.7679 10.2861 15.1785H10.2825L10.188 16.5444C10.1797 16.6632 10.1257 16.7751 10.0362 16.859C9.94671 16.9429 9.82787 16.993 9.702 17H8.298C8.17213 16.993 8.05329 16.9429 7.9638 16.859C7.87431 16.7751 7.82033 16.6632 7.812 16.5444L7.7175 15.1785H7.7139C7.69817 14.78 7.52285 14.4021 7.2234 14.1211C7.06857 13.9749 6.88475 13.8589 6.68245 13.7799C6.48015 13.7008 6.26333 13.6602 6.0444 13.6603C5.5908 13.6603 5.1804 13.8304 4.8789 14.1075L3.8196 14.983C3.72071 15.0645 3.59273 15.1074 3.46155 15.1032C3.33038 15.0989 3.20583 15.0477 3.1131 14.96L2.6379 14.5112L2.637 14.5103L2.1618 14.0616C2.06878 13.9738 2.0146 13.856 2.01026 13.7319C2.00591 13.6078 2.05172 13.4868 2.1384 13.3935L3.0942 12.365L3.0933 12.3641C3.37908 12.0728 3.53759 11.6902 3.537 11.2931C3.537 10.8554 3.348 10.4601 3.0438 10.1736C2.74723 9.8942 2.35002 9.73061 1.9314 9.7155V9.71465L0.4851 9.6237C0.354018 9.6155 0.231144 9.56052 0.141395 9.46992C0.0516464 9.37932 0.00174136 9.25987 0.00180008 9.1358V8.5017H0V8.5L0.000899935 7.86505C0.000899935 7.6075 0.2124 7.39415 0.4851 7.37715L1.9305 7.2879V7.2845C2.35174 7.26922 2.75118 7.10368 3.0483 6.82125C3.3498 6.53565 3.5361 6.14125 3.5361 5.70775C3.5361 5.29125 3.3651 4.913 3.087 4.6308L2.1384 3.6074C2.05172 3.51406 2.00591 3.39306 2.01026 3.26898C2.0146 3.1449 2.06878 3.02703 2.1618 2.9393L2.637 2.49135L2.6361 2.4905ZM12.8574 8.5C12.8574 9.46621 12.451 10.3928 11.7276 11.0761C11.0042 11.7593 10.023 12.1431 9 12.1431C7.97695 12.1431 6.99581 11.7593 6.27241 11.0761C5.549 10.3928 5.1426 9.46621 5.1426 8.5C5.1426 7.53379 5.549 6.60715 6.27241 5.92394C6.99581 5.24073 7.97695 4.8569 9 4.8569C10.023 4.8569 11.0042 5.24073 11.7276 5.92394C12.451 6.60715 12.8574 7.53379 12.8574 8.5Z" fill="#1A3D78"/>
</svg>
