<svg xmlns="http://www.w3.org/2000/svg" width="59" height="58" viewBox="0 0 59 58" fill="none">
  <g clip-path="url(#clip0_82_12)">
    <path d="M5.47363 31.7527H0.115234V42.2992H5.47363V31.7527ZM0.115234 10.6598H5.47363V5.38086H10.832V0.113281H0.115234V10.6598ZM5.47363 47.5668H0.115234V58.1133H10.8436V52.8457H5.47363V47.5668ZM43.0285 0.113281H32.3002V5.38086H43.0285V0.113281ZM5.47363 15.9273H0.115234V26.4738H5.47363V15.9273ZM16.202 58.1133H26.9303V52.8457H16.202V58.1133ZM48.3869 0.113281V5.38086H53.7453V10.6484H59.1152V0.113281H48.3869ZM16.202 5.38086H26.9303V0.113281H16.202V5.38086ZM53.7568 26.4738H59.1152V15.9273H53.7568V26.4738ZM32.3002 58.1133H59.1152V31.7527H32.3002V58.1133Z" fill="#CCDAFC"/>
  </g>
  <defs>
    <clipPath id="clip0_82_12">
      <rect width="59" height="58" fill="white"/>
    </clipPath>
  </defs>
</svg>