<svg width="17" height="17" viewBox="0 0 17 17" fill="none" xmlns="http://www.w3.org/2000/svg">
<path d="M1.54395 9.27363H0V12.3648H1.54395V9.27363ZM9.27363 1.54395H12.3648V0H9.27363V1.54395ZM9.27363 17H12.3648V15.4561H9.27363V17ZM1.54395 13.9088H0V17H3.09121V15.4561H1.54395V13.9088ZM4.63516 17H7.72637V15.4561H4.63516V17ZM13.9088 0V1.54395H15.4527V3.08789H17V0H13.9088ZM15.4561 7.72637H17V4.63516H15.4561V7.72637ZM15.4561 15.4561H13.9121V17H17V13.9088H15.4561V15.4561ZM15.4561 12.3648H17V9.27363H15.4561V12.3648ZM0 7.72637H7.72637V0H0V7.72637Z" fill="#1A3D78"/>
</svg>
