<svg width="18" height="20" viewBox="0 0 18 20" fill="none" xmlns="http://www.w3.org/2000/svg">
<path d="M8.45514 4.26131C8.57187 4.26131 8.63028 4.19992 8.65947 4.10348C8.96106 2.6392 8.94163 2.60414 10.6346 2.31477C10.7513 2.29726 10.8195 2.23587 10.8195 2.13064C10.8195 2.02544 10.7513 1.96405 10.6346 1.9465C8.95135 1.63966 9 1.60457 8.65947 0.157835C8.63028 0.0613906 8.57187 0 8.45514 0C8.33836 0 8.27999 0.0613906 8.25081 0.157835C7.91027 1.60457 7.96864 1.63966 6.27568 1.9465C6.16866 1.96405 6.09082 2.02544 6.09082 2.13064C6.09082 2.23587 6.16866 2.29726 6.27568 2.31477C7.96864 2.62169 7.94917 2.6392 8.25081 4.10348C8.27999 4.19992 8.33836 4.26131 8.45514 4.26131ZM3.74597 10.2937C3.93083 10.2937 4.05732 10.1885 4.07675 10.0307C4.42704 7.68961 4.51459 7.68961 7.20002 7.22493C7.37516 7.19859 7.50161 7.0934 7.50161 6.92681C7.50161 6.76897 7.37516 6.65498 7.20002 6.62868C4.51459 6.29551 4.41728 6.21657 4.07675 3.83165C4.05732 3.67386 3.93083 3.55987 3.74597 3.55987C3.57082 3.55987 3.44433 3.67386 3.42486 3.84044C3.1038 6.19027 2.96755 6.18152 0.301637 6.62868C0.126491 6.66377 0 6.76897 0 6.92681C0 7.10215 0.126492 7.19859 0.340535 7.22493C2.98702 7.61071 3.1038 7.6721 3.42486 10.0132C3.44433 10.1885 3.57082 10.2937 3.74597 10.2937ZM10.3427 20C10.5957 20 10.7806 19.8334 10.8292 19.5967C11.52 14.7918 12.2692 14.064 17.5427 13.5379C17.8151 13.5116 18 13.3275 18 13.0995C18 12.8716 17.8151 12.6962 17.5427 12.6611C12.2692 12.135 11.52 11.4073 10.8292 6.60238C10.7806 6.36565 10.5957 6.20782 10.3427 6.20782C10.0897 6.20782 9.90487 6.36565 9.86597 6.60238C9.17515 11.4073 8.41624 12.135 3.15241 12.6611C2.87028 12.6962 2.68542 12.8716 2.68542 13.0995C2.68542 13.3275 2.87028 13.5116 3.15241 13.5379C8.40648 14.1605 9.13621 14.8005 9.86597 19.5967C9.90487 19.8334 10.0897 20 10.3427 20Z" fill="#1A3D78"/>
</svg>
