<svg width="31" height="29" viewBox="0 0 31 29" fill="none" xmlns="http://www.w3.org/2000/svg">
<mask id="mask0_39_1106" style="mask-type:luminance" maskUnits="userSpaceOnUse" x="0" y="0" width="31" height="29">
<path d="M30.2586 0.423309H0.0688477V28.2296H30.2586V0.423309Z" fill="white"/>
</mask>
<g mask="url(#mask0_39_1106)">
<g filter="url(#filter0_d_39_1106)">
<path fill-rule="evenodd" clip-rule="evenodd" d="M18.373 22.6635H1.84753C1.05519 22.6635 0.381104 23.2736 0.381104 24.0252C0.381104 24.7822 1.03745 25.3867 1.84753 25.3867H18.373C18.982 26.9729 20.6244 28.1098 22.555 28.1098C24.4855 28.1098 26.1278 26.9729 26.7369 25.3867H28.4797C29.2721 25.3867 29.9462 24.7767 29.9462 24.0252C29.9462 23.2682 29.2899 22.6635 28.4797 22.6635H26.7369C26.1278 21.0775 24.4855 19.9405 22.555 19.9405C20.6244 19.9405 18.982 21.0775 18.373 22.6635ZM13.4341 15.8558H28.4812C29.2736 15.8558 29.9477 15.2459 29.9477 14.4943C29.9477 13.7373 29.2914 13.1327 28.4812 13.1327H13.4341C12.8251 11.5465 11.1827 10.4096 9.25211 10.4096C7.32151 10.4096 5.67918 11.5465 5.07013 13.1327H1.84901C1.05667 13.1327 0.382581 13.7427 0.382581 14.4943C0.382581 15.2513 1.03893 15.8558 1.84901 15.8558H5.07013C5.67918 17.4421 7.32151 18.5789 9.25211 18.5789C11.1827 18.5789 12.8251 17.4421 13.4341 15.8558ZM18.373 3.60189H1.84753C1.05519 3.60189 0.381104 4.21186 0.381104 4.96344C0.381104 5.72045 1.03745 6.32499 1.84753 6.32499H18.373C18.982 7.91119 20.6244 9.04809 22.555 9.04809C24.4855 9.04809 26.1278 7.91119 26.7369 6.32499H28.4797C29.2721 6.32499 29.9462 5.71502 29.9462 4.96344C29.9462 4.20641 29.2899 3.60189 28.4797 3.60189H26.7369C26.1278 2.01568 24.4855 0.878784 22.555 0.878784C20.6244 0.878784 18.982 2.01568 18.373 3.60189ZM22.555 6.32499C23.3709 6.32499 24.0332 5.71502 24.0332 4.96344C24.0332 4.21186 23.3709 3.60189 22.555 3.60189C21.739 3.60189 21.0766 4.21186 21.0766 4.96344C21.0766 5.71502 21.739 6.32499 22.555 6.32499ZM9.25064 13.1327C8.43464 13.1327 7.77238 13.7427 7.77238 14.4943C7.77238 15.2459 8.43464 15.8558 9.25064 15.8558C10.0666 15.8558 10.7289 15.2459 10.7289 14.4943C10.7289 13.7427 10.0666 13.1327 9.25064 13.1327ZM22.555 25.3867C23.3709 25.3867 24.0332 24.7767 24.0332 24.0252C24.0332 23.2736 23.3709 22.6635 22.555 22.6635C21.739 22.6635 21.0766 23.2736 21.0766 24.0252C21.0766 24.7767 21.739 25.3867 22.555 25.3867Z" fill="#1A3D78"/>
</g>
</g>
<defs>
<filter id="filter0_d_39_1106" x="-275.481" y="-261.19" width="581.291" height="578.955" filterUnits="userSpaceOnUse" color-interpolation-filters="sRGB">
<feFlood flood-opacity="0" result="BackgroundImageFix"/>
<feColorMatrix in="SourceAlpha" type="matrix" values="0 0 0 0 0 0 0 0 0 0 0 0 0 0 0 0 0 0 127 0" result="hardAlpha"/>
<feOffset dy="13.7931"/>
<feGaussianBlur stdDeviation="137.931"/>
<feColorMatrix type="matrix" values="0 0 0 0 0 0 0 0 0 0 0 0 0 0 0 0 0 0 0.1 0"/>
<feBlend mode="normal" in2="BackgroundImageFix" result="effect1_dropShadow_39_1106"/>
<feBlend mode="normal" in="SourceGraphic" in2="effect1_dropShadow_39_1106" result="shape"/>
</filter>
</defs>
</svg>
